<mxfile host="app.diagrams.net" agent="Mozilla/5.0 (Macintosh; Intel Mac OS X 10_15_7) AppleWebKit/537.36 (KHTML, like Gecko) Chrome/138.0.0.0 Safari/537.36" version="28.0.6">
  <diagram name="Page-1" id="jqqdq49zu0ktxSVInKII">
    <mxGraphModel dx="1018" dy="570" grid="1" gridSize="10" guides="1" tooltips="1" connect="1" arrows="1" fold="1" page="1" pageScale="1" pageWidth="827" pageHeight="1169" math="0" shadow="0">
      <root>
        <mxCell id="0" />
        <mxCell id="1" parent="0" />
        <mxCell id="eCpr51AbtL4uRUqxEd4O-10" style="edgeStyle=orthogonalEdgeStyle;rounded=0;orthogonalLoop=1;jettySize=auto;html=1;entryX=0;entryY=0.5;entryDx=0;entryDy=0;" parent="1" source="eCpr51AbtL4uRUqxEd4O-5" target="eCpr51AbtL4uRUqxEd4O-8" edge="1">
          <mxGeometry relative="1" as="geometry" />
        </mxCell>
        <mxCell id="eCpr51AbtL4uRUqxEd4O-5" value="ClockEvent" style="rounded=1;whiteSpace=wrap;html=1;" parent="1" vertex="1">
          <mxGeometry x="40" y="290" width="120" height="60" as="geometry" />
        </mxCell>
        <mxCell id="eCpr51AbtL4uRUqxEd4O-35" value="11am" style="edgeStyle=orthogonalEdgeStyle;rounded=0;orthogonalLoop=1;jettySize=auto;html=1;entryX=0;entryY=0.5;entryDx=0;entryDy=0;curved=1;" parent="1" source="eCpr51AbtL4uRUqxEd4O-8" target="eCpr51AbtL4uRUqxEd4O-34" edge="1">
          <mxGeometry relative="1" as="geometry" />
        </mxCell>
        <mxCell id="eCpr51AbtL4uRUqxEd4O-40" style="edgeStyle=orthogonalEdgeStyle;rounded=0;orthogonalLoop=1;jettySize=auto;html=1;entryX=0;entryY=0.5;entryDx=0;entryDy=0;exitX=0.5;exitY=1;exitDx=0;exitDy=0;curved=1;" parent="1" source="eCpr51AbtL4uRUqxEd4O-8" target="eCpr51AbtL4uRUqxEd4O-38" edge="1">
          <mxGeometry relative="1" as="geometry" />
        </mxCell>
        <mxCell id="eCpr51AbtL4uRUqxEd4O-41" value="7pm" style="edgeLabel;html=1;align=center;verticalAlign=middle;resizable=0;points=[];" parent="eCpr51AbtL4uRUqxEd4O-40" vertex="1" connectable="0">
          <mxGeometry x="-0.2928" y="18" relative="1" as="geometry">
            <mxPoint as="offset" />
          </mxGeometry>
        </mxCell>
        <mxCell id="eCpr51AbtL4uRUqxEd4O-8" value="WhichAlarm?" style="ellipse;whiteSpace=wrap;html=1;" parent="1" vertex="1">
          <mxGeometry x="200" y="280" width="120" height="80" as="geometry" />
        </mxCell>
        <mxCell id="eCpr51AbtL4uRUqxEd4O-9" value="NextAlarm =&amp;gt; 11am" style="rounded=1;whiteSpace=wrap;html=1;" parent="1" vertex="1">
          <mxGeometry x="440" y="30" width="120" height="60" as="geometry" />
        </mxCell>
        <mxCell id="eCpr51AbtL4uRUqxEd4O-15" value="NextAlarm =&amp;gt; 7pm" style="rounded=1;whiteSpace=wrap;html=1;" parent="1" vertex="1">
          <mxGeometry x="440" y="330" width="120" height="60" as="geometry" />
        </mxCell>
        <mxCell id="eCpr51AbtL4uRUqxEd4O-23" value="NextAlarm =&amp;gt; 7am" style="rounded=1;whiteSpace=wrap;html=1;" parent="1" vertex="1">
          <mxGeometry x="440" y="490" width="120" height="60" as="geometry" />
        </mxCell>
        <mxCell id="eCpr51AbtL4uRUqxEd4O-25" value="Trigger&amp;nbsp;&lt;div&gt;&lt;i&gt;DoorbellAlarm&lt;/i&gt;&lt;/div&gt;" style="rounded=1;whiteSpace=wrap;html=1;" parent="1" vertex="1">
          <mxGeometry x="440" y="100" width="120" height="60" as="geometry" />
        </mxCell>
        <mxCell id="eCpr51AbtL4uRUqxEd4O-26" value="Trigger &lt;i&gt;CoffeeEnable&lt;/i&gt;" style="rounded=1;whiteSpace=wrap;html=1;" parent="1" vertex="1">
          <mxGeometry x="440" y="170" width="120" height="60" as="geometry" />
        </mxCell>
        <mxCell id="eCpr51AbtL4uRUqxEd4O-27" value="Adjust Temp and Light targets" style="rounded=1;whiteSpace=wrap;html=1;" parent="1" vertex="1">
          <mxGeometry x="440" y="240" width="120" height="60" as="geometry" />
        </mxCell>
        <mxCell id="eCpr51AbtL4uRUqxEd4O-32" style="edgeStyle=orthogonalEdgeStyle;rounded=0;orthogonalLoop=1;jettySize=auto;html=1;entryX=0.5;entryY=0;entryDx=0;entryDy=0;curved=1;" parent="1" source="eCpr51AbtL4uRUqxEd4O-28" target="eCpr51AbtL4uRUqxEd4O-31" edge="1">
          <mxGeometry relative="1" as="geometry" />
        </mxCell>
        <mxCell id="eCpr51AbtL4uRUqxEd4O-28" value="" style="shape=process;whiteSpace=wrap;html=1;backgroundOutline=1;fillColor=none;" parent="1" vertex="1">
          <mxGeometry x="400" y="20" width="200" height="290" as="geometry" />
        </mxCell>
        <mxCell id="eCpr51AbtL4uRUqxEd4O-29" style="edgeStyle=orthogonalEdgeStyle;rounded=0;orthogonalLoop=1;jettySize=auto;html=1;entryX=-0.005;entryY=0.479;entryDx=0;entryDy=0;entryPerimeter=0;curved=1;exitX=0.5;exitY=0;exitDx=0;exitDy=0;" parent="1" source="eCpr51AbtL4uRUqxEd4O-8" target="eCpr51AbtL4uRUqxEd4O-28" edge="1">
          <mxGeometry relative="1" as="geometry">
            <Array as="points">
              <mxPoint x="270" y="280" />
              <mxPoint x="270" y="159" />
            </Array>
          </mxGeometry>
        </mxCell>
        <mxCell id="eCpr51AbtL4uRUqxEd4O-30" value="7am" style="edgeLabel;html=1;align=center;verticalAlign=middle;resizable=0;points=[];" parent="eCpr51AbtL4uRUqxEd4O-29" vertex="1" connectable="0">
          <mxGeometry x="-0.4233" y="-3" relative="1" as="geometry">
            <mxPoint as="offset" />
          </mxGeometry>
        </mxCell>
        <mxCell id="eCpr51AbtL4uRUqxEd4O-31" value="Idle" style="rounded=1;whiteSpace=wrap;html=1;" parent="1" vertex="1">
          <mxGeometry x="680" y="290" width="120" height="60" as="geometry" />
        </mxCell>
        <mxCell id="eCpr51AbtL4uRUqxEd4O-33" value="Trigger&amp;nbsp;&lt;div&gt;&lt;i&gt;CoffeeEnable&lt;/i&gt;&lt;/div&gt;" style="rounded=1;whiteSpace=wrap;html=1;" parent="1" vertex="1">
          <mxGeometry x="440" y="400" width="120" height="60" as="geometry" />
        </mxCell>
        <mxCell id="eCpr51AbtL4uRUqxEd4O-36" style="edgeStyle=orthogonalEdgeStyle;rounded=0;orthogonalLoop=1;jettySize=auto;html=1;entryX=0;entryY=0.5;entryDx=0;entryDy=0;curved=1;" parent="1" source="eCpr51AbtL4uRUqxEd4O-34" target="eCpr51AbtL4uRUqxEd4O-31" edge="1">
          <mxGeometry relative="1" as="geometry" />
        </mxCell>
        <mxCell id="eCpr51AbtL4uRUqxEd4O-34" value="" style="shape=process;whiteSpace=wrap;html=1;backgroundOutline=1;fillColor=none;" parent="1" vertex="1">
          <mxGeometry x="400" y="320" width="200" height="150" as="geometry" />
        </mxCell>
        <mxCell id="eCpr51AbtL4uRUqxEd4O-37" value="Adjust Temp and Light targets" style="rounded=1;whiteSpace=wrap;html=1;" parent="1" vertex="1">
          <mxGeometry x="440" y="570" width="120" height="60" as="geometry" />
        </mxCell>
        <mxCell id="eCpr51AbtL4uRUqxEd4O-39" style="edgeStyle=orthogonalEdgeStyle;rounded=0;orthogonalLoop=1;jettySize=auto;html=1;entryX=0.5;entryY=1;entryDx=0;entryDy=0;curved=1;" parent="1" source="eCpr51AbtL4uRUqxEd4O-38" target="eCpr51AbtL4uRUqxEd4O-31" edge="1">
          <mxGeometry relative="1" as="geometry" />
        </mxCell>
        <mxCell id="eCpr51AbtL4uRUqxEd4O-38" value="" style="shape=process;whiteSpace=wrap;html=1;backgroundOutline=1;fillColor=none;" parent="1" vertex="1">
          <mxGeometry x="400" y="480" width="200" height="170" as="geometry" />
        </mxCell>
      </root>
    </mxGraphModel>
  </diagram>
</mxfile>
